# xmcd CD database file
#
# Track frame offsets:
#	225
#	9971
#	24339
#	42152
#	56717
#	75888
#	89124
#	98874
#	115906
#	134742
#	147805
#	165602
#	178002
#	193719
#
# Disc length: 2812 seconds
#
# Revision: 0
# Processed by: cddbd v1.5.2PL0 Copyright (c) Steve Scherf et al.
# Submitted via: CDex 1.70beta2
#
DISCID=b60af90e
DTITLE=Searsons - Live
DYEAR=2005
DGENRE=Country
TTITLE0=Footstomp
TTITLE1=Another Mile
TTITLE2=Prophecy
TTITLE3=Don't Follow After Me
TTITLE4=Da Tunes
TTITLE5=E and  C
TTITLE6=Four On the Floor
TTITLE7=King George
TTITLE8=Dark Angel
TTITLE9=Tied Wings
TTITLE10=Lads
TTITLE11=Runaway
TTITLE12=Friday Night
TTITLE13=The Link
EXTD=YEAR: 2005
EXTT0=
EXTT1=
EXTT2=
EXTT3=
EXTT4=
EXTT5=
EXTT6=
EXTT7=
EXTT8=
EXTT9=
EXTT10=
EXTT11=
EXTT12=
EXTT13=
PLAYORDER=
